<svg height="512" viewBox="0 0 128 128" width="512" xmlns="http://www.w3.org/2000/svg"><g><g><g fill="#f4d844"><path d="m49.38 6.5h29.241v25.375h-29.241z"/><path d="m6.5 96.125h29.241v25.375h-29.241z"/><path d="m49.38 96.125h29.241v25.375h-29.241z"/><path d="m92.259 96.125h29.241v25.375h-29.241z"/></g><path d="m103.88 88.125h6v8h-6z" fill="#eaeaf0"/><path d="m61 88.125h6v8h-6z" fill="#eaeaf0"/><path d="m18.12 88.125h6v8h-6z" fill="#eaeaf0"/><path d="m61 31.875h6v8h-6z" fill="#eaeaf0"/></g><g fill="#2d1418"><path d="m78.62 16.5a1.75 1.75 0 0 0 -1.75 1.75v3a1.75 1.75 0 0 0 3.5 0v-3a1.75 1.75 0 0 0 -1.75-1.75z"/><path d="m121.5 94.37h-9.87v-6.25a1.75 1.75 0 0 0 -1.75-1.75h-1.25v-18.37a1.75 1.75 0 0 0 -1.75-1.75h-41.13v-24.62h1.25a1.75 1.75 0 0 0 1.75-1.75v-6.25h9.87a1.75 1.75 0 0 0 1.75-1.75v-4.628a1.75 1.75 0 1 0 -3.5 0v2.878h-25.74v-21.88h25.74v3.125a1.75 1.75 0 0 0 3.5 0v-4.875a1.75 1.75 0 0 0 -1.75-1.75h-29.24a1.751 1.751 0 0 0 -1.75 1.75v25.38a1.751 1.751 0 0 0 1.75 1.75h9.87v6.25a1.751 1.751 0 0 0 1.75 1.75h1.25v24.62h-41.13a1.751 1.751 0 0 0 -1.75 1.75v18.37h-1.25a1.751 1.751 0 0 0 -1.75 1.75v6.25h-9.87a1.751 1.751 0 0 0 -1.75 1.75v25.38a1.751 1.751 0 0 0 1.75 1.75h29.24a1.75 1.75 0 0 0 1.75-1.75v-25.38a1.75 1.75 0 0 0 -1.75-1.75h-1.281a1.751 1.751 0 0 0 -.469 3.437v21.943h-25.74v-21.88h18.792a1.75 1.75 0 0 0 0-3.5h-1.172v-6.25a1.751 1.751 0 0 0 -1.75-1.75h-1.25v-16.62h39.38v16.62h-1.25a1.751 1.751 0 0 0 -1.75 1.75v6.25h-9.87a1.751 1.751 0 0 0 -1.75 1.75v25.38a1.751 1.751 0 0 0 1.75 1.75h29.24a1.75 1.75 0 0 0 1.75-1.75v-25.38a1.75 1.75 0 0 0 -1.75-1.75h-9.87v-6.25a1.75 1.75 0 0 0 -1.75-1.75h-1.25v-16.62h39.38v16.62h-1.25a1.75 1.75 0 0 0 -1.75 1.75v1.547a1.75 1.75 0 0 0 3.488.2h2.512v4.5h-15.87a1.75 1.75 0 0 0 -1.75 1.75v25.383a1.75 1.75 0 0 0 1.75 1.75h29.24a1.75 1.75 0 0 0 1.75-1.75v-25.38a1.75 1.75 0 0 0 -1.75-1.75zm-56.25-60.74v4.5h-2.5v-4.5zm-45.38 60.74v-4.5h2.5v4.5zm57 25.38h-25.74v-21.88h25.74zm-14.12-25.38v-4.5h2.5v4.5zm57 25.38h-25.74v-21.88h25.74z"/></g></g></svg>