<svg id="Layer_1" enable-background="new 0 0 510 510" height="512" viewBox="0 0 510 510" width="512" xmlns="http://www.w3.org/2000/svg"><g><path d="m255 149.955-15.088-10-14.912 10v30l15.088 10 14.912-10 15-15z" fill="#37617a"/><path d="m285 149.955-15.883-10-14.117 10v30l14.352 10 15.648-10z" fill="#254050"/><path d="m255 0h-255v150h255l15-75z" fill="#447895"/><path d="m255 0h255v150h-255z" fill="#37617a"/><path d="m420 60h30v30h-30z" fill="#f9eb97"/><path d="m360 60h30v30h-30z" fill="#70c4af"/><path d="m300 60h30v30h-30z" fill="#f1cb30"/><path d="m60 60h150v30h-150z" fill="#f9eb97"/><path d="m255 330-15.088-10-14.912 10v30l15.088 10 14.912-10 15-15z" fill="#37617a"/><path d="m285 330-15.883-10-14.117 10v30l14.352 10 15.648-10z" fill="#254050"/><path d="m255 180h-255v150h255l15-75z" fill="#447895"/><path d="m255 180h255v150h-255z" fill="#37617a"/><path d="m420 240h30v30h-30z" fill="#cd4957"/><path d="m360 240h30v30h-30z" fill="#70c4af"/><path d="m300 240h30v30h-30z" fill="#f1cb30"/><path d="m60 240h150v30h-150z" fill="#df666e"/><path d="m255 360h-255v150h255l15-75z" fill="#447895"/><path d="m255 360h255v150h-255z" fill="#37617a"/><path d="m420 420h30v30h-30z" fill="#cd4957"/><path d="m360 420h30v30h-30z" fill="#70c4af"/><path d="m300 420h30v30h-30z" fill="#f1cb30"/><path d="m60 420h150v30h-150z" fill="#f9f9f9"/><path d="m420 60h30v30h-30z" fill="#cd4957"/></g></svg>